<?xml version="1.0" standalone="no"?>
<!DOCTYPE svg PUBLIC "-//W3C//DTD SVG 20010904//EN"
 "http://www.w3.org/TR/2001/REC-SVG-20010904/DTD/svg10.dtd">
<svg version="1.0" xmlns="http://www.w3.org/2000/svg"
 width="1650.000000pt" height="854.000000pt" viewBox="0 0 1650.000000 854.000000"
 preserveAspectRatio="xMidYMid meet">

<g transform="translate(0.000000,854.000000) scale(0.100000,-0.100000)"
fill="#000000" stroke="none">
<path d="M9594 7847 l-1199 -693 0 -1347 0 -1348 430 -249 430 -248 5 1356 5
1356 1188 685 c653 377 1187 688 1187 691 -1 4 -580 341 -780 452 l-66 37
-1200 -692z"/>
<path d="M13785 8364 c-165 -96 -355 -206 -423 -245 l-123 -71 163 -93 c90
-52 627 -362 1193 -689 l1030 -594 5 -1354 5 -1354 433 250 432 249 -2 1345
-3 1344 -1195 690 c-657 380 -1199 692 -1205 694 -5 1 -145 -76 -310 -172z"/>
<path d="M11900 7449 c-300 -176 -608 -356 -685 -402 -77 -45 -428 -251 -780
-458 l-640 -376 -2 -1565 -3 -1566 543 -313 c298 -172 610 -352 692 -400 83
-48 296 -171 475 -274 179 -104 415 -240 525 -303 371 -214 419 -241 424 -238
3 2 209 121 456 263 248 143 527 304 620 358 94 54 226 130 295 170 69 40 168
97 220 127 52 30 299 173 549 317 249 144 464 267 477 273 l24 11 0 1571 0
1571 -256 150 c-141 83 -313 183 -383 224 -69 40 -200 118 -291 171 -91 54
-505 297 -920 540 -415 244 -764 449 -775 456 -18 12 -73 -18 -565 -307z m677
-493 c252 -145 401 -231 623 -359 316 -183 424 -245 672 -387 120 -69 218
-128 218 -131 0 -4 -318 -190 -707 -414 -390 -225 -757 -438 -818 -473 -60
-36 -115 -65 -120 -65 -6 0 -348 195 -760 433 -413 238 -781 451 -820 473 -38
22 -71 41 -73 42 -4 3 -1 5 523 307 248 143 509 294 580 335 72 42 175 101
230 133 55 32 147 85 205 119 58 33 108 61 112 61 4 0 65 -33 135 -74z m1873
-2468 l0 -1003 -108 -61 c-59 -33 -411 -236 -782 -451 -371 -214 -701 -404
-732 -422 l-58 -32 0 243 c1 134 0 583 -2 998 l-2 755 72 42 c39 23 161 94
269 156 188 108 685 395 988 570 77 44 187 109 245 143 58 35 106 63 108 63 1
1 2 -450 2 -1001z m-3252 560 c411 -237 786 -454 835 -481 l87 -49 0 -999 c0
-549 -3 -999 -6 -999 -3 0 -47 24 -97 54 -85 50 -271 157 -737 426 -102 58
-332 191 -512 295 l-328 189 0 998 c0 549 2 998 6 998 3 0 341 -194 752 -432z"/>
<path d="M0 5775 l0 -1345 593 0 c586 0 734 6 896 36 246 45 462 154 622 313
260 260 385 671 349 1145 -54 713 -468 1132 -1171 1186 -74 5 -394 10 -711 10
l-578 0 0 -1345z m1152 731 c202 -13 375 -99 480 -237 92 -122 131 -264 132
-484 1 -424 -131 -633 -455 -716 -72 -19 -120 -22 -346 -26 l-263 -5 0 739 0
738 187 -2 c104 -1 222 -4 265 -7z"/>
<path d="M2850 5776 l0 -1345 348 2 347 2 3 448 2 447 353 0 c366 1 378 1 516
26 337 61 553 260 637 589 46 182 41 455 -12 619 -74 230 -254 405 -500 488
-181 60 -183 60 -971 65 l-723 5 0 -1346z m1330 752 c84 -28 158 -99 186 -178
28 -81 26 -228 -5 -295 -40 -91 -111 -145 -220 -171 -36 -9 -143 -13 -322 -14
l-269 -1 0 344 0 345 283 -4 c256 -4 288 -6 347 -26z"/>
<path d="M5420 5775 l0 -1346 663 4 c364 2 680 7 702 11 228 39 333 70 475
142 204 104 360 260 464 464 109 213 153 415 155 715 2 300 -36 491 -138 700
-68 138 -112 200 -213 303 -166 167 -377 272 -653 324 -103 19 -156 21 -782
25 l-673 5 0 -1347z m1205 725 c99 -15 214 -55 282 -99 151 -98 250 -274 268
-475 3 -34 8 -75 11 -92 6 -42 -13 -250 -31 -338 -30 -143 -110 -267 -219
-340 -64 -43 -204 -91 -301 -104 -38 -6 -170 -11 -292 -11 l-223 -2 0 738 0
738 217 -2 c120 -2 250 -8 288 -13z"/>
<path d="M14735 2311 c-6 -5 -522 -304 -1149 -666 -969 -559 -1142 -656 -1160
-647 -11 5 -528 303 -1149 661 -620 358 -1130 651 -1132 651 -3 0 -4 -221 -3
-491 l3 -491 1150 -663 c1038 -600 1152 -663 1170 -651 11 7 530 307 1153 666
l1132 653 0 494 c0 271 -1 493 -3 493 -2 0 -7 -4 -12 -9z"/>
</g>
</svg>
