<?xml version="1.0" standalone="no"?>
<!DOCTYPE svg PUBLIC "-//W3C//DTD SVG 20010904//EN"
 "http://www.w3.org/TR/2001/REC-SVG-20010904/DTD/svg10.dtd">
<svg version="1.0" xmlns="http://www.w3.org/2000/svg"
 width="100" height="100" viewBox="0 0 2000.000000 1600.000000"
 preserveAspectRatio="xMidYMid meet">

<g transform="translate(0.000000,1600.000000) scale(0.100000,-0.100000)"
fill="#000000" stroke="none">
<path d="M4870 8305 l0 -1575 414 0 c368 0 415 2 420 16 3 9 6 306 6 660 l0
644 416 0 c358 0 415 -2 411 -14 -31 -80 -42 -384 -18 -506 99 -507 479 -845
1011 -901 122 -13 305 -1 424 26 325 76 558 259 714 562 29 56 52 106 52 112
0 8 -105 11 -351 11 l-352 0 -58 -64 c-86 -94 -131 -111 -289 -111 -120 0
-128 1 -192 32 -135 64 -237 202 -246 334 l-4 59 728 -2 728 -3 8 -40 c54
-277 159 -481 338 -653 160 -155 363 -249 589 -272 241 -25 464 57 621 227 33
36 60 70 60 74 0 5 5 9 10 9 6 0 10 -40 10 -100 l0 -100 1240 0 1240 0 0 350
0 350 -505 0 -505 0 0 315 0 315 505 0 505 0 0 330 0 330 -502 2 -503 3 -3
228 -2 227 505 0 505 0 0 345 0 345 -638 0 c-351 0 -909 3 -1240 7 l-602 6 0
-646 c0 -356 -1 -647 -3 -647 -1 0 -28 24 -59 53 -145 134 -321 197 -550 197
-269 0 -493 -90 -686 -275 -116 -110 -212 -258 -267 -410 -10 -27 -21 -54 -25
-58 -4 -4 -17 20 -30 55 -115 319 -363 556 -675 646 -146 42 -186 47 -390 46
-191 -1 -205 -2 -320 -32 -272 -72 -525 -248 -638 -444 -12 -21 -25 -38 -29
-38 -5 0 -8 90 -8 200 l0 200 -465 0 -464 0 -3 221 c-2 121 -1 223 1 225 2 2
233 4 513 4 l508 0 0 350 0 350 -930 0 -930 0 0 -1575z m2952 33 c104 -48 194
-159 213 -260 l7 -38 -397 0 -397 0 7 27 c23 93 104 204 181 249 75 44 120 54
229 51 83 -2 110 -7 157 -29z m2215 -92 c163 -74 254 -256 256 -511 2 -242
-80 -408 -241 -487 -63 -31 -72 -33 -177 -33 -99 0 -116 3 -168 27 -71 33
-165 121 -201 188 -49 89 -67 159 -73 270 -13 273 115 499 320 566 27 9 75 13
132 11 73 -3 102 -8 152 -31z"/>
<path d="M12887 8643 c38 -43 237 -266 442 -496 l372 -418 -32 -37 c-18 -20
-80 -90 -138 -156 -58 -65 -105 -122 -104 -127 2 -5 -1 -8 -6 -6 -7 2 -576
-630 -595 -662 -5 -8 121 -11 441 -10 l448 1 214 244 c118 134 217 244 220
244 3 -1 103 -111 221 -245 l215 -244 467 0 468 -1 -441 493 c-243 270 -443
497 -446 504 -4 9 412 484 836 956 l33 37 -448 0 -449 -1 -209 -240 c-198
-227 -210 -239 -227 -223 -10 9 -109 117 -221 240 l-203 224 -463 0 -464 0 69
-77z"/>
</g>
</svg>
