<?xml version="1.0" standalone="no"?>
<!DOCTYPE svg PUBLIC "-//W3C//DTD SVG 20010904//EN"
 "http://www.w3.org/TR/2001/REC-SVG-20010904/DTD/svg10.dtd">
<svg version="1.0" xmlns="http://www.w3.org/2000/svg"
 width="2000.000000pt" height="1553.000000pt" viewBox="0 0 2000.000000 1553.000000"
 preserveAspectRatio="xMidYMid meet">

<g transform="translate(0.000000,1553.000000) scale(0.100000,-0.100000)"
fill="#000000" stroke="none">
<path d="M5860 15454 c-428 -30 -780 -84 -1145 -175 -2189 -546 -3914 -2266
-4460 -4449 -84 -333 -129 -603 -167 -995 -20 -203 -17 -857 5 -1075 81 -797
270 -1463 612 -2155 331 -670 726 -1204 1292 -1745 394 -378 873 -718 1388
-985 701 -364 1445 -581 2275 -662 223 -22 825 -24 1040 -5 1211 111 2253 512
3215 1236 72 53 130 100 130 104 0 4 5 7 10 7 6 0 28 17 49 38 22 20 45 37 52
37 7 0 14 3 16 8 2 4 29 29 61 56 32 27 56 55 53 62 -3 7 7 14 22 17 31 6 421
397 542 542 41 50 80 95 86 100 6 6 31 37 54 69 47 65 56 76 115 147 22 26 51
64 65 84 14 20 39 55 55 78 17 23 36 54 44 70 8 15 18 27 23 27 5 0 14 13 19
30 6 17 15 30 21 30 6 0 8 7 4 15 -3 8 -1 15 3 15 5 0 26 26 48 58 44 66 41
62 112 184 30 51 63 105 73 120 11 16 17 32 14 37 -3 5 2 15 10 22 21 17 58
99 55 119 -2 8 1 12 5 7 9 -8 97 164 163 318 23 55 52 122 64 149 12 27 22 54
22 60 1 6 5 20 10 31 32 77 87 222 94 253 14 52 71 223 82 244 5 10 9 31 9 48
0 17 4 38 10 48 19 34 37 131 26 136 -8 3 -7 7 1 13 18 13 42 75 48 125 7 61
16 101 26 114 5 6 9 35 10 65 1 30 8 68 15 84 6 17 15 62 19 100 4 39 9 79 11
90 10 54 24 151 35 253 10 92 10 115 -1 122 -10 6 -10 8 1 12 19 6 27 102 34
418 7 291 -11 630 -34 638 -15 5 -14 39 1 44 13 5 -6 197 -28 283 -7 27 -10
53 -7 58 3 4 -2 40 -11 80 -8 40 -20 110 -26 157 -7 47 -15 89 -19 95 -5 5 -8
17 -8 25 0 8 -8 47 -17 85 -9 39 -26 111 -38 160 -18 80 -40 154 -110 385 -11
36 -29 88 -39 115 -10 28 -19 58 -19 67 0 9 -4 20 -10 23 -5 3 -10 14 -10 23
0 9 -13 42 -30 72 -16 30 -29 62 -30 71 0 17 -23 75 -70 174 -54 116 -88 191
-118 258 -17 37 -36 67 -42 67 -6 0 -10 6 -9 13 4 19 -101 219 -153 291 -15
21 -28 44 -28 51 0 7 -8 23 -19 36 -10 13 -33 51 -50 84 -18 33 -40 67 -50 75
-9 8 -20 23 -24 32 -9 25 -158 242 -168 246 -5 2 -9 9 -9 15 0 7 -9 23 -20 37
-11 14 -52 66 -91 115 -61 77 -99 122 -189 225 -8 9 -33 39 -55 65 -34 42
-137 152 -300 321 -38 39 -287 268 -385 353 -85 74 -385 294 -540 396 -221
146 -402 250 -660 379 -671 335 -1365 533 -2140 612 -147 15 -786 27 -920 18z"/>
<path d="M18620 1947 l0 -422 -65 62 c-120 114 -257 165 -450 164 -238 0 -428
-81 -587 -249 -100 -106 -165 -230 -205 -388 -27 -107 -24 -334 5 -442 82
-304 282 -509 580 -594 93 -27 302 -32 392 -9 102 25 200 79 268 148 l62 63 0
-100 0 -100 178 2 177 3 3 1143 2 1142 -180 0 -180 0 0 -423z m-348 -528 c89
-19 158 -58 229 -129 104 -103 149 -220 149 -385 0 -150 -44 -272 -134 -372
-91 -101 -210 -154 -346 -154 -234 0 -426 147 -485 372 -19 71 -19 229 0 304
36 140 142 278 252 327 102 46 228 60 335 37z"/>
<path d="M8050 1970 l0 -250 -165 0 -165 0 0 -160 0 -160 165 0 165 0 0 -435
c0 -479 5 -533 60 -652 82 -178 277 -273 531 -259 136 7 313 56 389 107 l23
15 -48 145 c-26 79 -49 146 -52 148 -2 3 -28 -7 -58 -22 -29 -14 -91 -34 -136
-43 -181 -37 -303 15 -339 145 -6 21 -10 201 -10 444 l0 407 290 0 290 0 0
160 0 160 -290 0 -290 0 -2 248 -3 247 -177 3 -178 2 0 -250z"/>
<path d="M1825 1750 c-137 -15 -241 -67 -339 -169 l-56 -60 0 100 0 99 -180 0
-180 0 2 -817 3 -818 177 -3 177 -2 3 517 3 518 26 67 c37 95 85 150 167 190
65 32 70 33 192 33 112 0 130 -2 170 -24 84 -44 136 -109 171 -216 10 -30 14
-169 19 -560 l5 -520 175 0 175 0 5 515 c6 551 4 531 58 636 21 40 77 98 123
126 47 29 131 48 215 48 143 0 239 -51 298 -159 52 -96 56 -141 56 -678 l0
-493 196 0 195 0 -3 593 -3 592 -28 81 c-89 264 -302 406 -612 406 -218 0
-361 -57 -502 -198 l-82 -83 -36 49 c-125 170 -345 256 -590 230z"/>
<path d="M4755 1753 c-368 -33 -657 -296 -731 -662 -23 -115 -15 -334 15 -441
67 -232 218 -415 426 -515 152 -73 315 -99 475 -76 152 23 253 73 350 174 l50
52 0 -102 0 -103 175 0 175 0 0 820 0 820 -175 0 -175 0 0 -101 0 -102 -72 69
c-82 77 -170 126 -269 148 -72 16 -184 25 -244 19z m230 -338 c223 -59 365
-255 365 -506 -1 -223 -105 -400 -286 -486 -67 -32 -90 -38 -164 -41 -163 -8
-296 42 -394 149 -97 105 -139 216 -139 374 0 253 138 451 353 507 82 21 189
22 265 3z"/>
<path d="M6670 1750 c-295 -24 -519 -181 -569 -401 -6 -24 -11 -78 -11 -120
-1 -279 200 -436 617 -484 298 -34 420 -98 399 -209 -21 -109 -162 -176 -374
-176 -164 0 -344 47 -475 125 -33 20 -63 34 -68 33 -5 -2 -45 -61 -89 -132
l-81 -130 23 -18 c44 -34 203 -107 288 -131 140 -40 226 -52 390 -52 174 1
275 17 400 66 245 95 379 303 341 530 -42 256 -246 389 -664 434 -81 9 -176
24 -210 35 -100 31 -144 94 -118 172 40 120 237 168 481 118 58 -11 156 -41
218 -66 63 -25 115 -44 116 -42 2 2 36 66 76 142 83 158 84 143 -20 196 -164
83 -437 128 -670 110z"/>
<path d="M9995 1750 c-366 -40 -626 -280 -700 -649 -22 -105 -16 -353 9 -445
69 -247 214 -426 427 -526 283 -132 692 -94 974 92 36 23 65 46 65 50 0 5 -37
64 -82 131 l-83 124 -60 -39 c-279 -177 -623 -170 -794 18 -53 58 -81 109
-105 192 l-15 52 606 0 605 0 -5 188 c-5 196 -13 244 -62 370 -83 208 -263
368 -475 421 -92 23 -212 31 -305 21z m260 -331 c117 -43 216 -175 240 -316
l7 -43 -427 0 c-401 0 -426 1 -421 18 3 9 8 31 12 47 22 94 110 214 193 263
110 64 273 77 396 31z"/>
<path d="M11949 1751 c-122 -17 -233 -78 -304 -169 -22 -28 -43 -51 -47 -51
-5 -1 -8 42 -8 94 l0 95 -175 0 -175 0 0 -820 0 -820 174 0 174 0 4 518 c4
445 7 525 21 575 34 118 91 192 176 230 63 28 175 33 280 13 47 -8 86 -14 88
-12 2 1 23 68 46 147 24 79 47 154 51 166 6 19 3 23 -26 27 -65 10 -224 14
-279 7z"/>
<path d="M13140 1749 c-218 -21 -379 -96 -525 -243 -75 -75 -99 -107 -138
-186 -72 -145 -90 -224 -91 -410 -1 -183 13 -256 79 -395 75 -161 183 -276
335 -358 237 -128 596 -142 847 -32 63 28 173 102 173 116 0 6 -37 73 -81 149
l-82 139 -41 -28 c-65 -45 -157 -88 -225 -106 -88 -23 -240 -21 -319 4 -207
64 -332 252 -332 501 0 265 142 453 390 516 151 38 351 -10 507 -122 21 -15
23 -13 61 53 22 37 61 103 86 146 l46 77 -74 49 c-41 26 -103 60 -139 74 -122
49 -319 72 -477 56z"/>
<path d="M14723 1750 c-294 -32 -556 -234 -663 -512 -88 -228 -76 -518 30
-734 102 -208 273 -353 495 -420 77 -23 109 -27 225 -28 211 -1 340 44 457
160 l63 64 0 -100 0 -100 178 2 177 3 3 818 2 817 -180 0 -180 0 0 -99 0 -98
-64 61 c-135 130 -327 189 -543 166z m272 -335 c225 -59 365 -255 365 -510 0
-218 -106 -397 -286 -482 -67 -32 -90 -38 -164 -41 -163 -8 -296 42 -394 149
-97 105 -139 216 -139 374 0 253 138 451 353 507 82 21 189 22 265 3z"/>
<path d="M16875 1750 c-126 -17 -228 -75 -312 -178 l-43 -53 0 101 0 100 -180
0 -180 0 2 -817 3 -818 177 -3 177 -2 3 527 c3 522 4 529 27 594 67 191 216
262 451 215 45 -10 84 -16 85 -14 2 2 25 77 52 168 43 143 47 166 34 171 -29
11 -235 17 -296 9z"/>
</g>
</svg>
